<?xml version="1.0" encoding="utf-8"?>
<!-- Generator: Adobe Illustrator 19.2.0, SVG Export Plug-In . SVG Version: 6.00 Build 0)  -->
<svg version="1.1" id="Layer_2" xmlns="http://www.w3.org/2000/svg" xmlns:xlink="http://www.w3.org/1999/xlink" x="0px" y="0px"
	 viewBox="0 0 168.7 40.8" style="enable-background:new 0 0 168.7 40.8;" xml:space="preserve">
<style type="text/css">
	.st0{fill:#231F20;}
	.st1{fill:#DA2304;}
	.st2{fill:#F26F1D;}
</style>
<title>brnrs.io1.white</title>
<g>
	<path class="st0" d="M53.3,23.7v10c0,2.5-2,4.5-4.5,4.5H34V13h4.3v6.2h10.5C51.2,19.2,53.3,21.2,53.3,23.7z M49,23.7
		c0-0.1-0.1-0.2-0.2-0.2c0,0,0,0,0,0H38.5c-0.1,0-0.2,0.1-0.2,0.2c0,0,0,0,0,0v10c0,0.1,0.1,0.2,0.2,0.2c0,0,0,0,0,0h10.2
		c0.1,0,0.2-0.1,0.3-0.2c0,0,0-0.1,0-0.1L49,23.7L49,23.7z"/>
	<path class="st0" d="M70.8,19.2v4.3H60.3c-0.1,0-0.2,0.1-0.2,0.2c0,0,0,0,0,0v14.5h-4.3V23.7c0-2.5,2-4.5,4.5-4.5H70.8z"/>
	<path class="st0" d="M92.4,23.7v14.5h-4.3V23.7c0-0.1-0.1-0.2-0.2-0.2c0,0,0,0,0,0H77.6c-0.1,0-0.2,0.1-0.2,0.2c0,0,0,0,0,0v14.5
		h-4.3v-19h14.8C90.4,19.2,92.4,21.2,92.4,23.7z"/>
	<path class="st0" d="M110.9,19.2v4.3h-10.5c-0.1,0-0.2,0.1-0.2,0.2c0,0,0,0,0,0v14.5h-4.3V23.7c0-2.5,2-4.5,4.5-4.5H110.9z"/>
	<path class="st0" d="M132.3,24.6H128v-0.8c0-0.1-0.1-0.2-0.2-0.2c0,0,0,0,0,0h-10.3c-0.1,0-0.2,0.1-0.2,0.2c0,0,0,0,0,0v2.6
		c0,0.1,0.1,0.2,0.2,0.2c0,0,0,0,0,0h10.3c2.5,0,4.5,2,4.5,4.5c0,0,0,0,0,0v2.6c0,2.5-2,4.5-4.5,4.5c0,0,0,0,0,0h-10.3
		c-2.5,0-4.5-2-4.5-4.5v-0.8h4.3v0.8c0,0.1,0.1,0.2,0.2,0.2c0,0,0,0,0,0h10.2c0.1,0,0.2-0.1,0.2-0.2c0,0,0,0,0,0v-2.6
		c0-0.1-0.1-0.2-0.2-0.2c0,0,0,0,0,0h-10.3c-2.5,0-4.5-2-4.5-4.5v-2.6c0-2.5,2-4.5,4.5-4.5h10.2c2.5,0,4.5,2,4.5,4.5c0,0,0,0,0,0
		L132.3,24.6L132.3,24.6z"/>
	<path class="st0" d="M138.3,38.2h-2.7v-2.7h2.7V38.2L138.3,38.2z"/>
	<path class="st0" d="M145.3,13v2.7h-2.7V13H145.3z M142.6,19.2h2.7v19h-2.7C142.6,38.2,142.6,19.2,142.6,19.2z"/>
	<path class="st0" d="M164.7,19.2c2.2,0,4,1.8,4,4v11c0,2.2-1.8,4-4,4h-11.4c-2.2,0-4-1.8-4-4V23.2c0-2.2,1.8-4,4-4L164.7,19.2
		L164.7,19.2z M153.3,21.9c-0.7,0-1.3,0.6-1.3,1.3c0,0,0,0,0,0v11.1c0,0.7,0.6,1.3,1.3,1.3h11.4c0.7,0,1.3-0.5,1.3-1.2c0,0,0,0,0,0
		V23.2c0-0.7-0.6-1.3-1.3-1.3H153.3z"/>
</g>
<g>
	<path class="st1" d="M6.3,27.8c1,0.6,2.2,0.8,3.4,0.5c0,0-8.6-1.9-3.1-10.8S17.1,6.8,13.9,1.8c0,0,7.3,2.5,3.9,9.3s-5,8.9-3.3,10.3
		s4.9-0.5,2.7-4.2c0,0,5.6,2,2.5,9.5c2.5-2.7,3.3-6.4,2.2-9.9c-1.9-6,1.9-7.4,1.9-7.4s-1.8,3,1.2,7.1c6,8.1,5.3,14.7,1.7,19
		c-4.6,1.2-10,0-14-2.3C10.2,31.8,8.1,30,6.3,27.8L6.3,27.8L6.3,27.8z M22.7,38.8l-1,0.1c-4.1,0.1-8.2-0.9-11.8-3
		c-2.9-1.6-5.4-3.8-7.4-6.4C3.9,41,15.1,43,22.7,38.8L22.7,38.8z"/>
	<path class="st2" d="M9.9,9.7C6.4,10.1,3.2,12,1.4,15c-3.7,6.3,0.3,15.4,8.8,20.4c7.9,4.6,17,4,21.2-1.2c-4.4,3.6-12.2,3.7-19-0.3
		c-8.2-4.8-12-13.6-8.5-19.6C5.2,12.1,7.4,10.4,9.9,9.7z"/>
	<path class="st1" d="M19.5,15.1c0,0-3.1-2.6,1.6-8.6S24.5,0,24.5,0C29.3,5.6,17.5,7.6,19.5,15.1z"/>
</g>
</svg>
